<svg id="Capa_1" data-name="Capa 1" xmlns="http://www.w3.org/2000/svg" viewBox="0 0 660.85 711.96"><defs><style>.cls-1{fill:#ce4e0d;}.cls-1,.cls-3{stroke:#ce4e0d;stroke-miterlimit:10;stroke-width:6px;}.cls-2{fill:#f9c5b4;}.cls-3{fill:none;}</style></defs><path class="cls-1" d="M611.21,351.54c12.29,5.27,23.7,10.53,35.1,17.55C699,402.44,713.88,472.65,680.54,525.3a75.76,75.76,0,0,1-12.29,15.8c-29.84,30.72-61.43,61.43-92.15,92.15-.88.88-2.63,1.76-3.51,2.63l.88,1.76H722.66c62.31-1.76,115,47.39,116.72,109.7A113.7,113.7,0,0,1,735.82,864.06c-9.65.88-18.43.88-28.08.88H541.87c-34.23.88-67.57-14-90.39-40.37a113.46,113.46,0,0,1-14.92-125.5,50.78,50.78,0,0,1,3.51-6.14l-9.65-3.51c-59.68-19.31-91.27-83.37-72-143A117.28,117.28,0,0,1,383,505.12c29-30.72,57.92-59.68,87.76-89.51l7.9-5.27-1.76-3.51H325.1c-62.31-.88-113.21-51.78-112.33-114.09A111.91,111.91,0,0,1,302.28,183a133.6,133.6,0,0,1,26.33-2.63H511.15A112.77,112.77,0,0,1,627,290.11V302.4c-3.51,14.92-7,28.08-12.29,41.25A30.41,30.41,0,0,1,611.21,351.54Zm-184.29-1.76h0c29.84,0,59.68-.88,88.64,0,14,1.76,27.21-4.39,36-15.8,15.8-15.8,20.18-40.37,11.41-61.43a51.14,51.14,0,0,0-50-33.35c-63.19-.88-125.5,0-188.68,0-15.8,0-31.59,7-41.25,19.31a52.05,52.05,0,0,0-7.9,57.92,54,54,0,0,0,51.78,32.47C360.22,350.66,393.57,349.78,426.92,349.78ZM623.5,696.43h0c-29,0-58.8,1.76-87.76-.88-15.8-.88-30.72,6.14-39.49,19.31-20.18,22.82-17.55,57.92,6.14,78.11L505,795.6c10.53,7.9,24.57,11.41,37.74,10.53h168.5c7,0,14-.88,21.06-.88A53.77,53.77,0,0,0,778,743.82c0-1.76-.88-3.51-.88-6.14-6.14-24.57-29-42.12-54.41-41.25ZM474.31,637.64c11.41,3.51,20.18-3.51,29-12.29,38.61-39.49,77.23-78.11,115.84-117.6a110.82,110.82,0,0,0,9.65-11.41c17.55-24.57,12.29-59.68-13.16-77.23-1.76-1.76-4.39-2.63-6.14-3.51-14-7-28.08-6.14-43-6.14a17.85,17.85,0,0,0-13.16,5.27c-39.49,40.37-79,79.86-118.48,120.23-4.39,4.39-8.78,8.78-13.16,14-14,15.8-16.67,38.61-7,57.92,12.28,21.94,31.58,32.47,59.67,30.72Z" transform="translate(-181.57 -156.02)"/><path class="cls-2" d="M583,330.19c12.29,5.27,23.7,10.53,35.1,17.55C670.79,381.09,685.71,451.3,652.36,504a75.76,75.76,0,0,1-12.29,15.8c-29.84,30.72-61.43,61.43-92.15,92.15-.88.88-2.63,1.76-3.51,2.63l.88,1.76H694.48c62.31-1.76,115,47.39,116.72,109.7A113.7,113.7,0,0,1,707.64,842.71c-9.65.88-18.43.88-28.08.88H513.69c-34.23.88-67.57-14-90.39-40.37a113.46,113.46,0,0,1-14.92-125.5,50.78,50.78,0,0,1,3.51-6.14l-9.65-3.51C342.56,648.76,311,584.7,330.28,525a117.28,117.28,0,0,1,24.57-41.25c29-30.72,57.92-59.68,87.76-89.51l7.9-5.27-1.76-3.51H296.92c-62.31-.88-113.21-51.78-112.33-114.09a111.91,111.91,0,0,1,89.51-109.7,133.6,133.6,0,0,1,26.33-2.63H483a112.77,112.77,0,0,1,115.84,109.7v12.29c-3.51,14.92-7,28.08-12.29,41.25A30.91,30.91,0,0,1,583,330.19Zm-184.3-1.76h0c29.84,0,59.68-.88,88.64,0,14,1.76,27.21-4.39,36-15.8,15.8-15.8,20.18-40.37,11.41-61.43a51.14,51.14,0,0,0-50-33.35c-63.19-.88-125.5,0-188.68,0-15.8,0-31.59,7-41.25,19.31a52.05,52.05,0,0,0-7.9,57.92,54,54,0,0,0,51.78,32.47C332,329.31,365.38,328.43,398.73,328.43ZM595.31,675.08h0c-29,0-58.8,1.76-87.76-.88-15.8-.88-30.72,6.14-39.49,19.31-20.18,22.82-17.55,57.92,6.14,78.11l2.63,2.63c10.53,7.9,24.57,11.41,37.74,10.53h168.5c7,0,14-.88,21.06-.88a53.77,53.77,0,0,0,45.64-61.43c0-1.76-.88-3.51-.88-6.14-6.14-24.57-29-42.12-54.41-41.25Zm-149.19-58.8c11.41,3.51,20.18-3.51,29-12.29,38.61-39.49,77.23-78.11,115.84-117.6A110.82,110.82,0,0,0,600.57,475c17.55-24.57,12.29-59.68-13.16-77.23-1.76-1.76-4.39-2.63-6.14-3.51-14-7-28.08-6.14-43-6.14a17.85,17.85,0,0,0-13.16,5.27c-39.49,40.37-79,79.86-118.48,120.23-4.39,4.39-8.78,8.78-13.16,14-14,15.8-16.67,38.61-7,57.92,12.28,22,31.59,32.48,59.67,30.72Z" transform="translate(-181.57 -156.02)"/><path class="cls-3" d="M583,330.19c12.29,5.27,23.7,10.53,35.1,17.55C670.79,381.09,685.71,451.3,652.36,504a75.76,75.76,0,0,1-12.29,15.8c-29.84,30.72-61.43,61.43-92.15,92.15-.88.88-2.63,1.76-3.51,2.63l.88,1.76H694.48c62.31-1.76,115,47.39,116.72,109.7A113.7,113.7,0,0,1,707.64,842.71c-9.65.88-18.43.88-28.08.88H513.69c-34.23.88-67.57-14-90.39-40.37a113.46,113.46,0,0,1-14.92-125.5,50.78,50.78,0,0,1,3.51-6.14l-9.65-3.51C342.56,648.76,311,584.7,330.28,525a117.28,117.28,0,0,1,24.57-41.25c29-30.72,57.92-59.68,87.76-89.51l7.9-5.27-1.76-3.51H296.92c-62.31-.88-113.21-51.78-112.33-114.09a111.91,111.91,0,0,1,89.51-109.7,133.6,133.6,0,0,1,26.33-2.63H483a112.77,112.77,0,0,1,115.84,109.7v12.29c-3.51,14.92-7,28.08-12.29,41.25A30.91,30.91,0,0,1,583,330.19Zm-184.3-1.76h0c29.84,0,59.68-.88,88.64,0,14,1.76,27.21-4.39,36-15.8,15.8-15.8,20.18-40.37,11.41-61.43a51.14,51.14,0,0,0-50-33.35c-63.19-.88-125.5,0-188.68,0-15.8,0-31.59,7-41.25,19.31a52.05,52.05,0,0,0-7.9,57.92,54,54,0,0,0,51.78,32.47C332,329.31,365.38,328.43,398.73,328.43ZM595.31,675.08h0c-29,0-58.8,1.76-87.76-.88-15.8-.88-30.72,6.14-39.49,19.31-20.18,22.82-17.55,57.92,6.14,78.11l2.63,2.63c10.53,7.9,24.57,11.41,37.74,10.53h168.5c7,0,14-.88,21.06-.88a53.77,53.77,0,0,0,45.64-61.43c0-1.76-.88-3.51-.88-6.14-6.14-24.57-29-42.12-54.41-41.25Zm-149.19-58.8c11.41,3.51,20.18-3.51,29-12.29,38.61-39.49,77.23-78.11,115.84-117.6A110.82,110.82,0,0,0,600.57,475c17.55-24.57,12.29-59.68-13.16-77.23-1.76-1.76-4.39-2.63-6.14-3.51-14-7-28.08-6.14-43-6.14a17.85,17.85,0,0,0-13.16,5.27c-39.49,40.37-79,79.86-118.48,120.23-4.39,4.39-8.78,8.78-13.16,14-14,15.8-16.67,38.61-7,57.92,12.28,22,31.59,32.48,59.67,30.72Z" transform="translate(-181.57 -156.02)"/></svg>