<?xml version="1.0" encoding="utf-8"?>
<!-- Generator: Adobe Illustrator 25.4.1, SVG Export Plug-In . SVG Version: 6.00 Build 0)  -->
<svg version="1.1" id="Capa_1" xmlns="http://www.w3.org/2000/svg" xmlns:xlink="http://www.w3.org/1999/xlink" x="0px" y="0px"
	 viewBox="0 0 1024 1024" style="enable-background:new 0 0 1024 1024;" xml:space="preserve">
<style type="text/css">
	.st0{opacity:0.15;fill:#FC8368;}
	.st1{fill:#CE4E0D;stroke:#CE4E0D;stroke-width:6;stroke-miterlimit:10;}
	.st2{fill:#F9C5B4;}
	.st3{fill:none;stroke:#CE4E0D;stroke-width:6;stroke-miterlimit:10;}
</style>
<rect x="0.49" y="0.49" class="st0" width="1023.03" height="1023.03"/>
<g>
	<g>
		<path class="st1" d="M611.21,351.54c12.29,5.27,23.7,10.53,35.1,17.55c52.66,33.35,67.57,103.56,34.23,156.21
			c-3.51,6.14-7.9,11.41-12.29,15.8c-29.84,30.72-61.43,61.43-92.15,92.15c-0.88,0.88-2.63,1.76-3.51,2.63l0.88,1.76h6.14
			c47.39,0,95.66,0,143.05,0c62.31-1.76,114.97,47.39,116.72,109.7c1.76,60.55-43.88,111.45-103.56,116.72
			c-9.65,0.88-18.43,0.88-28.08,0.88c-55.29,0-110.58,0-165.87,0c-34.23,0.88-67.57-14.04-90.39-40.37
			c-29.84-35.1-35.98-84.25-14.92-125.5c0.88-1.76,1.76-3.51,3.51-6.14l-9.65-3.51c-59.68-19.31-91.27-83.37-71.96-143.05
			c5.27-14.92,13.16-28.96,24.57-41.25c28.96-30.72,57.92-59.68,87.76-89.51c2.63-1.76,5.27-3.51,7.9-5.27l-1.76-3.51h-7.9
			c-48.27,0-95.66,0-143.93,0c-62.31-0.88-113.21-51.78-112.33-114.09c0-53.53,37.74-99.17,89.51-109.7
			c8.78-1.76,17.55-2.63,26.33-2.63c60.55,0,121.99,0,182.54,0c62.31-1.76,114.09,47.39,115.84,109.7c0,4.39,0,7.9,0,12.29
			c-3.51,14.92-7.02,28.08-12.29,41.25C613.84,346.27,612.97,348.91,611.21,351.54z M426.92,349.78L426.92,349.78
			c29.84,0,59.68-0.88,88.64,0c14.04,1.76,27.21-4.39,35.98-15.8c15.8-15.8,20.18-40.37,11.41-61.43
			c-7.9-21.06-28.08-34.23-50.02-33.35c-63.19-0.88-125.5,0-188.68,0c-15.8,0-31.59,7.02-41.25,19.31
			c-14.04,15.8-17.55,38.61-7.9,57.92c8.78,20.18,28.96,33.35,51.78,32.47C360.22,350.66,393.57,349.78,426.92,349.78z
			 M623.5,696.43L623.5,696.43c-28.96,0-58.8,1.76-87.76-0.88c-15.8-0.88-30.72,6.14-39.49,19.31
			c-20.18,22.82-17.55,57.92,6.14,78.11c0.88,0.88,1.76,1.76,2.63,2.63c10.53,7.9,24.57,11.41,37.74,10.53c56.17,0,112.33,0,168.5,0
			c7.02,0,14.04-0.88,21.06-0.88c29.84-4.39,50.02-31.59,45.64-61.43c0-1.76-0.88-3.51-0.88-6.14
			c-6.14-24.57-28.96-42.12-54.41-41.25C690.19,696.43,656.85,696.43,623.5,696.43z M474.31,637.64
			c11.41,3.51,20.18-3.51,28.96-12.29c38.61-39.49,77.23-78.11,115.84-117.6c3.51-3.51,7.02-7.9,9.65-11.41
			c17.55-24.57,12.29-59.68-13.16-77.23c-1.76-1.76-4.39-2.63-6.14-3.51c-14.04-7.02-28.08-6.14-43-6.14
			c-5.27,0-9.65,1.76-13.16,5.27c-39.49,40.37-78.98,79.86-118.48,120.23c-4.39,4.39-8.78,8.78-13.16,14.04
			c-14.04,15.8-16.67,38.61-7.02,57.92C426.92,628.86,446.22,639.39,474.31,637.64L474.31,637.64z"/>
	</g>
	<path class="st2" d="M583.03,330.19c12.29,5.27,23.7,10.53,35.1,17.55c52.66,33.35,67.58,103.56,34.23,156.21
		c-3.51,6.14-7.9,11.41-12.29,15.8c-29.84,30.72-61.43,61.43-92.15,92.15c-0.88,0.88-2.63,1.76-3.51,2.63l0.88,1.76h6.14
		c47.39,0,95.66,0,143.05,0c62.31-1.76,114.97,47.39,116.72,109.7c1.76,60.55-43.88,111.45-103.56,116.72
		c-9.65,0.88-18.43,0.88-28.08,0.88c-55.29,0-110.58,0-165.87,0c-34.23,0.88-67.57-14.04-90.39-40.37
		c-29.84-35.1-35.98-84.25-14.92-125.5c0.88-1.76,1.76-3.51,3.51-6.14l-9.65-3.51c-59.68-19.31-91.27-83.37-71.96-143.05
		c5.27-14.92,13.16-28.96,24.57-41.25c28.96-30.72,57.92-59.68,87.76-89.51c2.63-1.76,5.27-3.51,7.9-5.27l-1.76-3.51h-7.9
		c-48.27,0-95.66,0-143.93,0c-62.31-0.88-113.21-51.78-112.33-114.09c0-53.53,37.74-99.17,89.51-109.7
		c8.78-1.76,17.55-2.63,26.33-2.63c60.55,0,121.99,0,182.54,0c62.31-1.76,114.09,47.39,115.84,109.7c0,4.39,0,7.9,0,12.29
		c-3.51,14.92-7.02,28.08-12.29,41.25C585.66,324.92,584.78,327.55,583.03,330.19z M398.73,328.43L398.73,328.43
		c29.84,0,59.68-0.88,88.64,0c14.04,1.76,27.21-4.39,35.98-15.8c15.8-15.8,20.18-40.37,11.41-61.43
		c-7.9-21.06-28.08-34.23-50.02-33.35c-63.19-0.88-125.5,0-188.68,0c-15.8,0-31.59,7.02-41.25,19.31
		c-14.04,15.8-17.55,38.61-7.9,57.92c8.78,20.18,28.96,33.35,51.78,32.47C332.03,329.31,365.38,328.43,398.73,328.43z
		 M595.31,675.08L595.31,675.08c-28.96,0-58.8,1.76-87.76-0.88c-15.8-0.88-30.72,6.14-39.49,19.31
		c-20.18,22.82-17.55,57.92,6.14,78.11c0.88,0.88,1.76,1.76,2.63,2.63c10.53,7.9,24.57,11.41,37.74,10.53c56.17,0,112.33,0,168.5,0
		c7.02,0,14.04-0.88,21.06-0.88c29.84-4.39,50.02-31.59,45.64-61.43c0-1.76-0.88-3.51-0.88-6.14
		c-6.14-24.57-28.96-42.12-54.41-41.25C662.01,675.08,628.66,675.08,595.31,675.08z M446.12,616.28
		c11.41,3.51,20.18-3.51,28.96-12.29c38.61-39.49,77.23-78.11,115.84-117.6c3.51-3.51,7.02-7.9,9.65-11.41
		c17.55-24.57,12.29-59.68-13.16-77.23c-1.76-1.76-4.39-2.63-6.14-3.51c-14.04-7.02-28.08-6.14-43-6.14
		c-5.27,0-9.65,1.76-13.16,5.27c-39.49,40.37-78.98,79.86-118.48,120.23c-4.39,4.39-8.78,8.78-13.16,14.04
		c-14.04,15.8-16.67,38.61-7.02,57.92C398.73,607.51,418.04,618.04,446.12,616.28L446.12,616.28z"/>
	<path class="st3" d="M583.03,330.19c12.29,5.27,23.7,10.53,35.1,17.55c52.66,33.35,67.58,103.56,34.23,156.21
		c-3.51,6.14-7.9,11.41-12.29,15.8c-29.84,30.72-61.43,61.43-92.15,92.15c-0.88,0.88-2.63,1.76-3.51,2.63l0.88,1.76h6.14
		c47.39,0,95.66,0,143.05,0c62.31-1.76,114.97,47.39,116.72,109.7c1.76,60.55-43.88,111.45-103.56,116.72
		c-9.65,0.88-18.43,0.88-28.08,0.88c-55.29,0-110.58,0-165.87,0c-34.23,0.88-67.57-14.04-90.39-40.37
		c-29.84-35.1-35.98-84.25-14.92-125.5c0.88-1.76,1.76-3.51,3.51-6.14l-9.65-3.51c-59.68-19.31-91.27-83.37-71.96-143.05
		c5.27-14.92,13.16-28.96,24.57-41.25c28.96-30.72,57.92-59.68,87.76-89.51c2.63-1.76,5.27-3.51,7.9-5.27l-1.76-3.51h-7.9
		c-48.27,0-95.66,0-143.93,0c-62.31-0.88-113.21-51.78-112.33-114.09c0-53.53,37.74-99.17,89.51-109.7
		c8.78-1.76,17.55-2.63,26.33-2.63c60.55,0,121.99,0,182.54,0c62.31-1.76,114.09,47.39,115.84,109.7c0,4.39,0,7.9,0,12.29
		c-3.51,14.92-7.02,28.08-12.29,41.25C585.66,324.92,584.78,327.55,583.03,330.19z M398.73,328.43L398.73,328.43
		c29.84,0,59.68-0.88,88.64,0c14.04,1.76,27.21-4.39,35.98-15.8c15.8-15.8,20.18-40.37,11.41-61.43
		c-7.9-21.06-28.08-34.23-50.02-33.35c-63.19-0.88-125.5,0-188.68,0c-15.8,0-31.59,7.02-41.25,19.31
		c-14.04,15.8-17.55,38.61-7.9,57.92c8.78,20.18,28.96,33.35,51.78,32.47C332.03,329.31,365.38,328.43,398.73,328.43z
		 M595.31,675.08L595.31,675.08c-28.96,0-58.8,1.76-87.76-0.88c-15.8-0.88-30.72,6.14-39.49,19.31
		c-20.18,22.82-17.55,57.92,6.14,78.11c0.88,0.88,1.76,1.76,2.63,2.63c10.53,7.9,24.57,11.41,37.74,10.53c56.17,0,112.33,0,168.5,0
		c7.02,0,14.04-0.88,21.06-0.88c29.84-4.39,50.02-31.59,45.64-61.43c0-1.76-0.88-3.51-0.88-6.14
		c-6.14-24.57-28.96-42.12-54.41-41.25C662.01,675.08,628.66,675.08,595.31,675.08z M446.12,616.28
		c11.41,3.51,20.18-3.51,28.96-12.29c38.61-39.49,77.23-78.11,115.84-117.6c3.51-3.51,7.02-7.9,9.65-11.41
		c17.55-24.57,12.29-59.68-13.16-77.23c-1.76-1.76-4.39-2.63-6.14-3.51c-14.04-7.02-28.08-6.14-43-6.14
		c-5.27,0-9.65,1.76-13.16,5.27c-39.49,40.37-78.98,79.86-118.48,120.23c-4.39,4.39-8.78,8.78-13.16,14.04
		c-14.04,15.8-16.67,38.61-7.02,57.92C398.73,607.51,418.04,618.04,446.12,616.28L446.12,616.28z"/>
</g>
</svg>
