<?xml version="1.0" encoding="utf-8"?>
<!-- Generator: Adobe Illustrator 25.4.1, SVG Export Plug-In . SVG Version: 6.00 Build 0)  -->
<svg version="1.1" id="Capa_1" xmlns="http://www.w3.org/2000/svg" xmlns:xlink="http://www.w3.org/1999/xlink" x="0px" y="0px"
	 viewBox="0 0 72.5 78.9" style="enable-background:new 0 0 72.5 78.9;" xml:space="preserve">
<style type="text/css">
	.st0{fill:#F29762;}
	.st1{fill:#CE4E0D;}
</style>
<path class="st0" d="M46,19.9c1.4,0.6,2.7,1.2,4,2c6,3.8,7.7,11.8,3.9,17.8c-0.4,0.7-0.9,1.3-1.4,1.8C49.1,45,45.5,48.5,42,52
	c-0.1,0.1-0.3,0.2-0.4,0.3l0.1,0.2h0.7c5.4,0,10.9,0,16.3,0C65.8,52.3,71.8,57.9,72,65c0.2,6.9-5,12.7-11.8,13.3
	c-1.1,0.1-2.1,0.1-3.2,0.1c-6.3,0-12.6,0-18.9,0c-3.9,0.1-7.7-1.6-10.3-4.6c-3.4-4-4.1-9.6-1.7-14.3c0.1-0.2,0.2-0.4,0.4-0.7
	l-1.1-0.4c-6.8-2.2-10.4-9.5-8.2-16.3c0.6-1.7,1.5-3.3,2.8-4.7c3.3-3.5,6.6-6.8,10-10.2c0.3-0.2,0.6-0.4,0.9-0.6l-0.2-0.4h-0.9
	c-5.5,0-10.9,0-16.4,0c-7.1-0.1-12.9-5.9-12.8-13c0-6.1,4.3-11.3,10.2-12.5c1-0.2,2-0.3,3-0.3c6.9,0,13.9,0,20.8,0
	c7.1-0.2,13,5.4,13.2,12.5c0,0.5,0,0.9,0,1.4C47.4,16,47,17.5,46.4,19C46.3,19.3,46.2,19.6,46,19.9z M25,19.7L25,19.7
	c3.4,0,6.8-0.1,10.1,0c1.6,0.2,3.1-0.5,4.1-1.8c1.8-1.8,2.3-4.6,1.3-7c-0.9-2.4-3.2-3.9-5.7-3.8c-7.2-0.1-14.3,0-21.5,0
	c-1.8,0-3.6,0.8-4.7,2.2c-1.6,1.8-2,4.4-0.9,6.6c1,2.3,3.3,3.8,5.9,3.7C17.4,19.8,21.2,19.7,25,19.7z M47.4,59.2L47.4,59.2
	c-3.3,0-6.7,0.2-10-0.1c-1.8-0.1-3.5,0.7-4.5,2.2c-2.3,2.6-2,6.6,0.7,8.9c0.1,0.1,0.2,0.2,0.3,0.3c1.2,0.9,2.8,1.3,4.3,1.2
	c6.4,0,12.8,0,19.2,0c0.8,0,1.6-0.1,2.4-0.1c3.4-0.5,5.7-3.6,5.2-7c0-0.2-0.1-0.4-0.1-0.7c-0.7-2.8-3.3-4.8-6.2-4.7
	C55,59.2,51.2,59.2,47.4,59.2z M30.4,52.5c1.3,0.4,2.3-0.4,3.3-1.4c4.4-4.5,8.8-8.9,13.2-13.4c0.4-0.4,0.8-0.9,1.1-1.3
	c2-2.8,1.4-6.8-1.5-8.8c-0.2-0.2-0.5-0.3-0.7-0.4c-1.6-0.8-3.2-0.7-4.9-0.7c-0.6,0-1.1,0.2-1.5,0.6c-4.5,4.6-9,9.1-13.5,13.7
	c-0.5,0.5-1,1-1.5,1.6c-1.6,1.8-1.9,4.4-0.8,6.6C25,51.5,27.2,52.7,30.4,52.5L30.4,52.5z"/>
<path class="st1" d="M24.8,1.5h9.7c3.4,0,6.7,1.3,9,3.8c2.3,2.5,3.4,5.7,3.1,9.1c-0.1,1-0.4,2-0.8,3c-0.2,0.5-0.3,0.9-0.5,1.4
	c0,0.1-0.1,0.3-0.2,0.4l-0.2,0.3l-0.5,0.9l0.9,0.4c0.5,0.2,0.9,0.4,1.4,0.6c0.9,0.4,1.7,0.8,2.5,1.3c5.5,3.5,7.1,10.9,3.6,16.3
	c-0.4,0.6-0.8,1.1-1.3,1.7c-2.4,2.5-4.9,5-7.3,7.4l-3.1,3.2l-0.1,0.1L41,51.5L40.3,52l0.4,0.8l0.1,0.2l0.3,0.6h17.6
	c5.8-0.1,10.8,3.9,12,9.6c1.3,6.4-2.8,12.7-9.3,14c-0.4,0.1-0.9,0.2-1.4,0.2C59,77.4,58,77.4,57,77.4H38c-3.7,0.1-7.2-1.4-9.5-4.2
	c-3.1-3.7-3.7-8.9-1.5-13.1c0.1-0.1,0.1-0.3,0.2-0.5l0.1-0.3l0.5-1L26.8,58l-0.4-0.1l-0.8-0.3c-3.9-1.3-6.8-4.4-7.8-8.3
	c-1.1-3.9,0-8.1,2.8-11c2.4-2.6,5-5.1,7.4-7.6l2.6-2.6c0.1-0.1,0.3-0.2,0.4-0.2l0.4-0.2l0.8-0.5l-0.5-0.8l-0.1-0.2l-0.1-0.2
	l-0.3-0.5H19.8c-2.2,0-4.3,0-6.5,0c-6.6,0-11.9-5.3-12-11.9c0-5.7,4-10.6,9.5-11.7c0.9-0.2,1.9-0.3,2.8-0.3L24.8,1.5 M18.2,20.8H25
	h3h3c1.6,0,2.9,0,4.1,0.1h0.4c1.8,0,3.4-0.8,4.5-2.2c2.1-2.1,2.6-5.3,1.5-8c-1-2.7-3.7-4.5-6.6-4.4c-3,0-6.1,0-9.8,0s-7.5,0-11.2,0
	h-0.6c-2.1,0-4.2,0.9-5.5,2.6c-1.9,2.1-2.3,5.2-1,7.7c1.1,2.7,3.8,4.4,6.8,4.3L18.2,20.8 M29.8,53.5h0.5c0.3,0.1,0.5,0.1,0.8,0.1
	c1.3-0.1,2.5-0.8,3.3-1.8c3-3.1,6.1-6.2,9.1-9.2c1.4-1.4,2.8-2.8,4.1-4.2c0.4-0.4,0.9-0.9,1.2-1.4c1.3-1.7,1.7-3.8,1.2-5.9
	c-0.5-2.1-1.8-3.9-3.7-4.9c-1.4-0.6-3-0.9-4.5-0.8H41c-0.8,0-1.6,0.3-2.1,0.9l-9.7,9.8L25.3,40L25,40.4c-0.4,0.4-0.8,0.8-1.2,1.3
	c-1.8,2.1-2.2,5.1-0.9,7.6C24.1,52,26.8,53.7,29.8,53.5 M47.5,72.8h9.9c0.8,0,1.7,0,2.5-0.1c3.9-0.5,6.7-4.1,6.3-8
	c0-0.3-0.1-0.7-0.2-1c-0.8-3.2-3.8-5.5-7.1-5.4h-4.6h-7.9h-2h-3c-1.6,0-2.8,0-4-0.1h-0.5c-1.9,0-3.7,1-4.8,2.5
	c-1.3,1.6-1.9,3.6-1.7,5.6c0.2,2,1.3,3.8,2.9,5c1.4,1,3.1,1.6,4.9,1.5L47.5,72.8 M24.8,0.5l-11.1,0c-1,0-2,0.1-3,0.3
	c-7,1.5-11.4,8.4-9.9,15.4c1.3,5.9,6.5,10.1,12.5,10.2c2.2,0,4.3,0,6.5,0h10.8l0.2,0.4c-0.3,0.2-0.6,0.4-0.9,0.6
	c-3.4,3.4-6.7,6.7-10,10.2c-4.8,5.2-4.5,13.4,0.8,18.2c1.3,1.2,2.9,2.2,4.7,2.8l1.1,0.4c-0.1,0.3-0.2,0.5-0.4,0.7
	c-2.4,4.6-1.8,10.3,1.7,14.3c2.6,3,6.3,4.7,10.3,4.6h19c1.1,0,2.1-0.1,3.2-0.1c7.1-0.7,12.3-7,11.6-14.1
	c-0.6-6.7-6.4-11.8-13.1-11.7h-17l-0.1-0.2c0.1-0.1,0.3-0.2,0.4-0.3c3.5-3.5,7-7,10.4-10.6c4.8-5.2,4.6-13.3-0.6-18.2
	c-0.6-0.5-1.2-1-1.8-1.4c-1.3-0.7-2.6-1.4-4-2c0.2-0.3,0.3-0.6,0.4-0.9c0.6-1.5,1-3,1.2-4.6C48.2,7.3,43,1.1,35.9,0.5
	c-0.5,0-0.9-0.1-1.4,0L24.8,0.5z M18.2,19.8h-4.6c-2.5,0.1-4.9-1.4-5.9-3.7C6.7,13.9,7,11.3,8.6,9.4c1.1-1.4,2.9-2.3,4.7-2.2h11.8
	c3.3,0,6.5,0,9.7,0c2.5-0.1,4.8,1.4,5.7,3.8c1,2.4,0.5,5.2-1.3,7c-0.9,1.2-2.3,1.9-3.8,1.8h-0.3c-1.4-0.1-2.8-0.1-4.2-0.1
	c-2,0-4,0-6,0H18.2z M29.8,52.5c-2.6,0.2-5-1.3-6-3.7c-1.1-2.2-0.7-4.7,0.8-6.6c0.5-0.6,1-1.1,1.5-1.6c4.5-4.6,9-9.1,13.5-13.7
	c0.4-0.4,0.9-0.6,1.5-0.6l0,0c1.7,0,3.3-0.1,4.9,0.7c3.1,1.7,4.2,5.5,2.6,8.6c-0.1,0.2-0.3,0.5-0.4,0.7c-0.4,0.5-0.8,0.9-1.2,1.3
	c-4.4,4.5-8.8,8.9-13.2,13.4c-0.6,0.8-1.5,1.4-2.6,1.5c-0.2,0-0.5,0-0.7-0.1C30.2,52.5,29.9,52.5,29.8,52.5L29.8,52.5z M47.5,71.8
	h-9.4c-1.5,0.1-3-0.4-4.3-1.2c-2.8-2.1-3.4-6.1-1.3-8.9c0.1-0.1,0.2-0.2,0.3-0.3c0.9-1.3,2.4-2.2,4-2.2h0.4c1.4,0.1,2.7,0.1,4.1,0.1
	c2,0,4-0.1,6-0.1h6.9h4.6c2.9,0,5.4,1.9,6.1,4.7c0.9,3.3-1.1,6.7-4.4,7.6c-0.3,0.1-0.5,0.1-0.8,0.1c-0.8,0.1-1.6,0.1-2.4,0.1
	L47.5,71.8z"/>
</svg>
